<svg width="25" height="25" viewBox="0 0 25 25" fill="none" xmlns="http://www.w3.org/2000/svg">
<path d="M15.126 19.499C15.126 19.1899 15.2177 18.8877 15.3894 18.6306C15.5612 18.3736 15.8053 18.1733 16.0909 18.055C16.3765 17.9367 16.6907 17.9057 16.9939 17.966C17.2971 18.0263 17.5756 18.1752 17.7942 18.3938C18.0128 18.6124 18.1617 18.8909 18.222 19.1941C18.2823 19.4973 18.2513 19.8115 18.133 20.0971C18.0147 20.3827 17.8144 20.6268 17.5574 20.7986C17.3003 20.9703 16.9981 21.062 16.689 21.062C16.2745 21.062 15.8769 20.8973 15.5838 20.6042C15.2907 20.3111 15.126 19.9135 15.126 19.499Z" stroke="white" stroke-width="2" stroke-miterlimit="10" stroke-linecap="round" stroke-linejoin="round"/>
<path d="M6.79001 19.499C6.79001 19.1899 6.88168 18.8877 7.05342 18.6306C7.22517 18.3736 7.46927 18.1733 7.75487 18.055C8.04048 17.9367 8.35474 17.9057 8.65793 17.966C8.96113 18.0263 9.23963 18.1752 9.45822 18.3938C9.67681 18.6124 9.82567 18.8909 9.88598 19.1941C9.94628 19.4973 9.91533 19.8115 9.79703 20.0971C9.67873 20.3827 9.4784 20.6268 9.22136 20.7986C8.96433 20.9703 8.66214 21.062 8.35301 21.062C7.93848 21.062 7.54092 20.8973 7.2478 20.6042C6.95468 20.3111 6.79001 19.9135 6.79001 19.499Z" stroke="white" stroke-width="2" stroke-miterlimit="10" stroke-linecap="round" stroke-linejoin="round"/>
<path d="M1.57901 3.347H4.23601L6.46601 14.716C6.58014 15.3249 6.90244 15.8751 7.37769 16.2724C7.85293 16.6698 8.45156 16.8895 9.07101 16.894H19.295" stroke="white" stroke-width="2" stroke-miterlimit="10" stroke-linecap="round" stroke-linejoin="round"/>
<path d="M4.70502 5.431H21.379L20.655 11.131C20.5959 11.5759 20.3764 11.9839 20.0378 12.2785C19.6992 12.573 19.2648 12.7339 18.816 12.731H6.09402" stroke="white" stroke-width="2" stroke-miterlimit="10" stroke-linecap="round" stroke-linejoin="round"/>
</svg>
