<svg width="14" height="13" viewBox="0 0 14 13" fill="none" xmlns="http://www.w3.org/2000/svg">
<path d="M7 11L3.732 12.718C3.59989 12.7875 3.45097 12.8187 3.30208 12.8079C3.15319 12.7972 3.01027 12.7451 2.88948 12.6574C2.76869 12.5696 2.67485 12.4499 2.61857 12.3116C2.56228 12.1734 2.54581 12.0221 2.571 11.875L3.2 8.236L0.551997 5.659C0.445176 5.55448 0.369769 5.42213 0.334321 5.27694C0.298874 5.13176 0.304804 4.97954 0.351439 4.83756C0.398074 4.69557 0.48355 4.56948 0.598179 4.47359C0.712807 4.3777 0.852005 4.31583 0.999997 4.295L4.653 3.764L6.287 0.454C6.35304 0.320081 6.45524 0.207317 6.58204 0.128467C6.70884 0.0496169 6.85518 0.00782776 7.0045 0.00782776C7.15381 0.00782776 7.30015 0.0496169 7.42695 0.128467C7.55375 0.207317 7.65596 0.320081 7.722 0.454L9.356 3.764L13 4.295C13.1478 4.31646 13.2866 4.37886 13.4008 4.47513C13.5149 4.5714 13.5999 4.6977 13.646 4.83974C13.6921 4.98178 13.6975 5.13389 13.6616 5.27886C13.6257 5.42382 13.55 5.55585 13.443 5.66L10.8 8.236L11.424 11.874C11.4492 12.0211 11.4327 12.1724 11.3764 12.3106C11.3201 12.4489 11.2263 12.5686 11.1055 12.6564C10.9847 12.7441 10.8418 12.7962 10.6929 12.8069C10.544 12.8177 10.3951 12.7865 10.263 12.717L7 11Z" fill="#FFDD4F"/>
</svg>
